<svg xmlns="http://www.w3.org/2000/svg" viewBox="0 0 207 165" width="200" height="159">
	<style>
		tspan { white-space:pre }
		.shp0 { fill: #de5833 } 
		.shp1 { fill: #ffffff } 
		.shp2 { fill: #fed30a } 
		.shp3 { fill: #2d4f8d } 
		.shp4 { fill: #d5d7d8 } 
		.shp5 { fill: #67bd47 } 
		.shp6 { fill: #43a347 } 
		.shp7 { fill: #4c4c4c } 
	</style>
	<g >
		<g >
			<g >
				<path class="shp0" d="M104 121C70.82 121 44 94.18 44 61C44 27.82 70.82 1 104 1C137.18 1 164 27.82 164 61C164 94.18 137.18 121 104 121Z" />
				<path fill-rule="evenodd" class="shp1" d="M159.1 61C159.1 68.5 157.7 75.7 154.8 82.5C152 89 148.1 94.9 143 100C137.9 105 132 109 125.5 111.8C118.7 114.6 111.4 116.1 104 116.1C96.5 116.1 89.3 114.7 82.5 111.8C76 109 70.1 105.1 65 100C60 95 56 89.1 53.2 82.5C50.4 75.7 48.9 68.5 48.9 61C48.9 53.5 50.3 46.3 53.2 39.5C56 33 59.9 27.1 65 22C70 16.9 75.9 12.9 82.5 10.2C89.3 7.4 96.6 5.9 104 5.9C111.5 5.9 118.7 7.3 125.5 10.2C132 13 137.9 16.9 143 22C148 27 152 32.9 154.8 39.5C157.7 46.3 159.1 53.5 159.1 61ZM155 61C155 32.8 132.2 10 104 10C75.8 10 53 32.9 53 61C53 83.1 67.1 101.9 86.7 108.9C84.1 98 76.7 66.8 75 49.3C73.8 37 80.4 30.2 93.3 28.5C87.7 26.7 77.8 27.2 77.8 27.2C78 23.8 83 23.1 83 23.1C80.4 21.8 78.1 21.1 78.1 21.1C91.9 19.2 100.6 23.9 104.3 28.8C119.3 32.4 121.7 49.6 121.7 54.5C121.7 75.1 104.4 53 104.4 78.8C104.4 90 112.8 105.1 116 110.5C138.3 105.1 154.9 85 155 61Z" />
				<path fill-rule="evenodd" class="shp2" d="M101.2 69.3C101.2 62.7 110.2 60.6 113.6 60.6C122.8 60.6 135.8 54.7 139 54.8C142.3 54.9 144.4 56.2 144.4 57.7C144.4 59.9 126 68.2 118.9 67.5C112.1 66.9 110.5 67.6 110.5 70.4C110.5 72.8 115.4 75 120.8 75C128.9 75 136.8 71.4 139.2 73.1C141.3 74.6 133.7 80 125 80C116.3 80 101.2 75.9 101.2 69.3Z" />
				<g >
					<path class="shp3" d="M117.2 41.3C114.8 38.2 110.5 38.1 109 41.7C111.3 39.9 114.1 39.5 117.2 41.3Z" />
					<path class="shp3" d="M90.5 41.4C87.2 39.4 81.7 39.2 82 45.5C83.6 41.6 85.8 40.9 90.5 41.4Z" />
					<path fill-rule="evenodd" class="shp3" d="M118.5 50.5C118.5 52.3 117 53.8 115.2 53.8C113.4 53.8 111.9 52.3 111.9 50.5C111.9 48.7 113.4 47.2 115.2 47.2C117 47.2 118.5 48.7 118.5 50.5ZM117.4 49.3C117.4 48.7 117 48.3 116.4 48.3C115.8 48.3 115.4 48.8 115.4 49.3C115.4 49.9 115.9 50.3 116.4 50.3C116.9 50.3 117.3 49.8 117.4 49.3Z" />
					<path fill-rule="evenodd" class="shp3" d="M93.4 52.8C93.4 54.9 91.7 56.6 89.6 56.6C87.5 56.6 85.8 54.9 85.8 52.8C85.8 50.7 87.5 49 89.6 49C91.7 49 93.4 50.7 93.4 52.8ZM92.1 51.4C92.1 50.8 91.6 50.3 91 50.3C90.4 50.3 89.9 50.8 89.9 51.4C89.9 52 90.4 52.5 91 52.5C91.6 52.5 92.1 52 92.1 51.4Z" />
				</g>
				<g >
					<path class="shp4" d="M81.3 32.8C76.5 36.3 74.3 41.7 75 49.3C76.7 66.8 84.1 98.1 86.7 109C87.6 109.3 88.5 109.6 89.4 109.9C87.8 103.3 80.1 71.1 76.7 46.4C75.8 39.8 78.4 35.9 81.3 32.8Z" />
					<path class="shp4" d="M93.2 28.5C93.6 28.5 93.9 28.4 93.9 28.4C88.7 25.9 80.5 25.8 78.3 25.8C78.1 26.2 77.9 26.7 77.9 27.2C77.8 27.3 87.5 26.7 93.2 28.5Z" />
					<path class="shp4" d="M83.8 23.1C82.2 22 80.9 21.3 80.1 20.9C79.4 21 78.8 21 78.1 21.1C78.1 21.1 80.4 21.8 83 23.1C83 23.1 82.9 23.1 82.8 23.1C83.5 23.1 83.8 23.1 83.8 23.1Z" />
				</g>
				<g >
					<path class="shp5" d="M124.1 89.6C122.4 89.2 115.8 93.9 113.3 95.7C113.2 95.2 113.1 94.8 113 94.6C112.7 93.6 106.3 94.2 104.8 95.8C100.8 93.9 92.8 90.2 92.7 92.5C92.4 95.5 92.7 108 94.3 108.9C95.5 109.6 102.3 105.9 105.7 104C105.7 104 105.7 104 105.8 104C107.9 104.5 111.8 104 113.2 103.1C113.4 103 113.5 102.8 113.6 102.6C116.7 103.8 123.4 106.2 124.8 105.7C126.6 105.2 126.2 90.1 124.1 89.6Z" />
					<path class="shp6" d="M105.8 104C103.7 103.6 104.4 101.5 104.4 96.6L104.4 96.6C103.9 96.9 103.5 97.3 103.5 97.7C103.5 102.6 102.7 104.8 104.9 105.1C107 105.6 110.9 105.1 112.5 104.2C112.8 104 112.9 103.7 113 103.2C111.5 104.1 107.8 104.5 105.8 104Z" />
				</g>
			</g>
			<g >
				<g >
					<path fill-rule="evenodd" class="shp7" d="M1.5 138L10.4 138C18.9 138 22.8 144.2 22.8 150C22.8 156.3 19 162.6 10.4 162.6L1.5 162.6L1.5 138ZM10.4 159.7C17 159.7 19.9 154.8 19.9 149.9C19.9 145.4 16.9 140.6 10.4 140.6L4.3 140.6L4.3 159.7L10.4 159.7Z" />
				</g>
				<g >
					<path class="shp7" d="M34 162.9C29.4 162.9 26.5 159.8 26.5 154.9L26.5 145.3L29.2 145.3L29.2 154.8C29.2 158.3 31.2 160.4 34.6 160.4C37.8 160.4 40.1 157.9 40.1 154.6L40.1 145.3L42.8 145.3L42.8 162.6L40.4 162.6L40.2 159.6L39.8 160.1C38.3 161.9 36.4 162.8 34 162.9Z" />
				</g>
				<g >
					<path class="shp7" d="M55.7 162.9C51.2 162.9 46.7 160.1 46.7 154C46.7 148.6 50.3 145.1 55.7 145.1C58.1 145.1 60.1 145.9 61.9 147.6L60.2 149.3C59 148.2 57.4 147.6 55.8 147.6C52 147.6 49.4 150.2 49.4 154C49.4 158.4 52.6 160.4 55.8 160.4C57.6 160.4 59.2 159.8 60.4 158.6L62.1 160.3C60.3 162 58.1 162.9 55.7 162.9Z" />
				</g>
				<g >
					<path class="shp7" d="M76.6 162.6L68.1 154.1L68.1 162.6L65.5 162.6L65.5 138L68.1 138L68.1 152.9L75.5 145.3L79 145.3L70.8 153.4L80 162.5L80 162.6L76.6 162.6Z" />
				</g>
				<g >
					<path fill-rule="evenodd" class="shp7" d="M83.2 138L92.1 138C100.6 138 104.5 144.2 104.5 150C104.5 156.3 100.7 162.6 92.1 162.6L83.2 162.6L83.2 138ZM86.1 159.7L92.2 159.7C98.8 159.7 101.7 154.8 101.7 149.9C101.7 145.4 98.7 140.6 92.2 140.6L86.1 140.6L86.1 159.7Z" />
				</g>
				<g >
					<path class="shp7" d="M115.7 162.9C111.1 162.9 108.2 159.8 108.2 154.9L108.2 145.3L110.9 145.3L110.9 154.8C110.9 158.3 112.9 160.4 116.3 160.4C119.5 160.4 121.8 157.9 121.8 154.6L121.8 145.3L124.5 145.3L124.5 162.6L122.1 162.6L122 159.6L121.6 160.1C120.1 161.9 118.1 162.8 115.7 162.9Z" />
				</g>
				<g >
					<path class="shp7" d="M137.4 162.9C132.9 162.9 128.4 160.1 128.4 154C128.4 148.6 132 145.1 137.4 145.1C139.8 145.1 141.8 145.9 143.6 147.6L141.9 149.3C140.7 148.2 139.1 147.6 137.5 147.6C133.7 147.6 131.1 150.2 131.1 154C131.1 158.4 134.3 160.4 137.5 160.4C139.3 160.4 140.9 159.8 142.1 158.6L143.8 160.3L143.7 160.4L143.7 160.4C142 162.1 139.9 162.9 137.4 162.9Z" />
				</g>
				<g >
					<path class="shp7" d="M158.3 162.6L149.9 154.1L149.9 162.6L147.3 162.6L147.3 138L149.9 138L149.9 152.9L157.3 145.3L160.7 145.3L152.6 153.4L161.7 162.5L161.7 162.6L158.3 162.6Z" />
				</g>
				<g >
					<path class="shp7" d="M175.6 163C166.1 163 162.8 156.2 162.8 150.5C162.8 146.7 164.1 143.4 166.4 141C168.7 138.7 171.9 137.5 175.6 137.5C179 137.5 182.1 138.8 184.5 141.1L182.9 143C181 141.2 178.2 140.1 175.6 140.1C168.7 140.1 165.6 145.5 165.6 150.5C165.6 155.4 168.7 160.4 175.7 160.4C178.2 160.4 180.6 159.5 182.5 157.9L182.6 157.8L182.6 151.7L174.9 151.7L174.9 149.2L185.2 149.2L185.2 158.8C182.5 161.7 179.4 163 175.6 163Z" />
				</g>
				<g >
					<path fill-rule="evenodd" class="shp7" d="M197.4 162.9C192.2 162.9 188.5 159.2 188.5 154C188.5 148.8 192.3 144.9 197.4 144.9C202.7 144.9 206.4 148.6 206.4 154C206.3 159.1 202.6 162.9 197.4 162.9ZM197.4 147.3C193.7 147.3 191.1 150 191.1 153.9C191.1 157.6 193.7 160.3 197.4 160.3C201.1 160.3 203.7 157.7 203.8 153.9C203.7 150.1 201.1 147.3 197.4 147.3Z" />
				</g>
			</g>
		</g>
		<g >
		</g>
	</g>
</svg>